<svg width="107" height="92" viewBox="0 0 107 92" fill="none" xmlns="http://www.w3.org/2000/svg">
<path d="M52.5527 45.9283L50.87 35.9283C47.7033 32.0949 45.17 22.8283 60.37 16.4283C62.7979 15.406 65.003 14.7273 67 14.3261M52.5527 45.9283L70.87 49.4283C70.87 49.4283 73.6581 50.3897 77 50.2889M52.5527 45.9283L54.5 60.5L56.5 74C54.6884 80 46.9918 80.8333 43.37 80.5L26.5 74L15.87 68.9283C8.86997 62.9283 10.37 63.4283 4.86996 55.9283C0.469962 45.1283 0.703295 38.0949 1.36996 35.9283C1.20329 32.7616 2.36996 24.4283 8.36996 16.4283C14.37 8.42825 20.5366 5.42825 22.87 4.92825C25.2033 3.09492 32.57 -0.17175 43.37 1.42825C54.17 3.02825 59.2033 6.76158 60.37 8.42825L67 14.3261M67 14.3261C70.5 11.8841 78.7 9.4 83.5 19C88.3 28.6 88.4133 37.2855 87.87 40.4283C86.4662 48.2892 81.2792 50.1599 77 50.2889M77 50.2889C79.6667 52.6448 81.5 60.5 80 68.9283C78.5 77.3565 81.37 79.5 70.87 83C65.66 81.8333 56.2659 81.8 60.37 91M83.5 10C93.5 6.5 100 10 102 19L105 33.5C106.333 38.1188 107 45.9283 105 49.4283C103.212 52.5572 95.6667 52.5 93 53" stroke="black"/>
</svg>
